# xmcd
#
# Track frame offsets: 
#        150
#        21871
#        52096
#        80473
#        104576
#        118846
#        134954
#        156557
#        176369
#        197368
#        220648
#
# Disc length: 3185 seconds
#
# Revision: 0
# Processed by: cddbd v1.5.2PL0 Copyright (c) Steve Scherf et al.
# Submitted via: ExactAudioCopyFreeDBPlugin 1.0
#
DISCID=a00c6f0b
DTITLE=Matchedash Parish - Saturday Night
DYEAR=2019
DGENRE=blues
TTITLE0=When The Rains Come
TTITLE1=Where There Is Love
TTITLE2=St John's Matchedash Parish Hall
TTITLE3=God Gave You Hands
TTITLE4=Lady Madonna
TTITLE5=Afraid
TTITLE6=Not Sold On Getting Old
TTITLE7=Hopeless Romantic
TTITLE8=Congo Strut
TTITLE9=Nothing To Say
TTITLE10=This Love Can't Last
EXTD=
EXTT0=
EXTT1=
EXTT2=
EXTT3=
EXTT4=
EXTT5=
EXTT6=
EXTT7=
EXTT8=
EXTT9=
EXTT10=
PLAYORDER=
